<?xml version="1.0" encoding="UTF-8"?>
<svg id="Layer_1" data-name="Layer 1" xmlns="http://www.w3.org/2000/svg" viewBox="0 0 229 62">
  <defs>
    <style>
      .cls-1 {
        fill: #d9ac28;
      }
    </style>
  </defs>
  <g>
    <g>
      <path d="M3.38,36.42V9.4h1.41l16.61,15.02v-15.02h3.03v27.02h-1.37L6.41,21.39v15.02h-3.03Z"/>
      <path d="M30.4,36.42V15.41c0-1.66.59-3.07,1.78-4.25,1.19-1.18,2.6-1.77,4.23-1.77h6.02c1.63,0,3.04.59,4.21,1.78,1.18,1.19,1.77,2.6,1.77,4.23v21h-5.98v-12h-6.02v12h-6.02ZM36.42,21.39h6.02v-5.98c0-.84-.29-1.55-.88-2.14-.59-.59-1.3-.88-2.14-.88s-1.52.29-2.11.88-.88,1.3-.88,2.14v5.98Z"/>
      <path d="M54.43,9.4h6.02v24.03h2.99c.84,0,1.55-.3,2.14-.9.59-.6.88-1.31.88-2.13V9.4h5.98v24.03h3.03c.82,0,1.52-.3,2.11-.9.59-.6.88-1.31.88-2.13V9.4h6.02v16.75c0,2.81-1,5.22-3.01,7.24-2.01,2.02-4.43,3.03-7.26,3.03h-7.75v-.94c-1.15.63-2.57.94-4.25.94h-7.78V9.4Z"/>
      <path d="M90.46,36.42V15.41c0-1.66.59-3.07,1.78-4.25,1.19-1.18,2.6-1.77,4.23-1.77h6.02c1.63,0,3.04.59,4.21,1.78,1.18,1.19,1.77,2.6,1.77,4.23v21h-5.98v-12h-6.02v12h-6.02ZM96.47,21.39h6.02v-5.98c0-.84-.29-1.55-.88-2.14-.59-.59-1.3-.88-2.14-.88s-1.52.29-2.11.88-.88,1.3-.88,2.14v5.98Z"/>
    </g>
    <g>
      <path d="M163.68,14.22l-.98-1.47,6.21-4.14.98,1.47-6.21,4.14Z"/>
      <path d="M217.92,8.87l-.98-1.47,6.21-4.14.98,1.47-6.21,4.14Z"/>
      <g>
        <path d="M148.84,22.47h-5.4c-.85-.09-1.42-.28-1.74-.6-.41-.41-.6-1.17-.6-2.27v-1.61c0-1.99.98-3,2.91-3h5.72v-3.57h-7.55c-1.61,0-2.84.51-3.79,1.52-.92.98-1.42,2.49-1.42,4.48v3.35c0,2.05.47,3.51,1.42,4.42.92.88,2.4,1.39,4.48,1.39h5.65c1.07,0,1.67.25,1.74.79.06.35,0,.76-.16,1.23-.16.35-.35.66-.6.92-.47.44-1.23.66-2.27.66h-22.84c-1.01,0-1.77-.28-2.24-.88-.51-.6-.76-1.42-.76-2.46,0-1.23.28-2.15.82-2.72.54-.57,1.33-.85,2.3-.85v-3.92c-2.24,0-3.79.38-4.61,1.14-1.11,1.04-1.64,3.25-1.64,6.57,0,2.84.41,4.77,1.2,5.75.79.98,2.27,1.48,4.42,1.48h24.35c1.99,0,3.38-.35,4.17-1.04.82-.69,1.39-1.99,1.61-3.85l.13-1.11v-1.2c0-3.06-1.77-4.61-5.31-4.61Z"/>
        <path d="M222.01,19.03v8.78c0,1.11-.35,1.83-1.07,2.12-.41.16-1.39.25-2.94.25h-48.47,14.87-12.56v-11.05h-7.77c-8.12,0-9.06,10.96-5.18,14.15.82.69,2.24,1.04,4.23,1.04h4.64v1.45c0,1.01-.28,1.77-.88,2.27s-5.34.76-6.38.76l1.86,3.76c2.84,0,7.04-1.04,8.02-1.83.98-.79,1.45-2.3,1.45-4.48v-1.96h12.56-14.87,50.37v-.1c1.37-.19,2.59-.68,3.63-1.48,1.52-1.14,2.24-2.78,2.24-4.9v-8.78h-3.76ZM167.76,30.17h-5.05c-3.38,0-3.35-7.49,1.55-7.49h3.51v7.49Z"/>
        <rect x="221.82" y="12.27" width="3.63" height="3.38"/>
      </g>
    </g>
  </g>
  <g>
    <path class="cls-1" d="M4.73,45.62v5.92h7.88v-5.92h1.49v13.07h-1.49v-5.79h-7.88v5.79h-1.49v-13.07h1.49Z"/>
    <path class="cls-1" d="M34.28,53.75c0,2.93-2.07,4.98-4.98,4.98s-4.98-2.05-4.98-4.98,2.05-4.95,4.98-4.95,4.98,2.03,4.98,4.95ZM25.77,53.77c0,2.2,1.46,3.7,3.53,3.7s3.53-1.49,3.53-3.7-1.48-3.68-3.53-3.68-3.53,1.51-3.53,3.68Z"/>
    <path class="cls-1" d="M60.56,52.63v6.05h-1.46v-5.67c0-1.77-1.03-2.82-2.73-2.82-2.03.06-3.21,1.53-3.21,3.66v4.83h-1.48v-5.67c0-1.77-1.01-2.82-2.73-2.82-2.02.06-3.23,1.53-3.23,3.66v4.83h-1.44v-9.82h1.44v2.22c.65-1.53,1.98-2.26,3.75-2.28,1.85,0,3.12.93,3.53,2.56.62-1.72,2-2.54,3.88-2.56,2.3,0,3.66,1.44,3.66,3.83Z"/>
    <path class="cls-1" d="M79.72,54.31h-8.03c.24,1.94,1.64,3.21,3.56,3.21,1.21,0,2.28-.45,3.04-1.25l.8.84c-.93,1.03-2.31,1.62-3.96,1.62-2.89,0-4.89-2.03-4.89-4.97s2.02-4.95,4.87-4.97c3.17,0,4.74,2.18,4.59,5.51ZM78.41,53.16c-.09-1.9-1.36-3.14-3.28-3.14s-3.23,1.23-3.43,3.14h6.72Z"/>
    <path class="cls-1" d="M110.65,53.75c0,2.93-2.07,4.98-4.98,4.98s-4.98-2.05-4.98-4.98,2.05-4.95,4.98-4.95,4.98,2.03,4.98,4.95ZM102.14,53.77c0,2.2,1.46,3.7,3.53,3.7s3.53-1.49,3.53-3.7-1.48-3.68-3.53-3.68-3.53,1.51-3.53,3.68Z"/>
    <path class="cls-1" d="M122.34,47.82v1.34h2.82v1.14h-2.82v8.38h-1.44v-8.38h-1.27v-1.14h1.27v-1.18c0-2.13,1.51-3.3,3.15-3.28.56.02,1.16.19,1.66.45l-.35,1.21c-.37-.19-.82-.36-1.29-.36-.95,0-1.74.65-1.74,1.81Z"/>
    <path class="cls-1" d="M158.47,52.15c0,3.71-2.93,6.53-6.78,6.53h-5.23v-13.07h5.28c3.81,0,6.72,2.82,6.72,6.53ZM156.96,52.17c0-2.95-2.31-5.17-5.25-5.17h-3.75v10.3h3.81c2.91,0,5.19-2.2,5.19-5.13Z"/>
    <path class="cls-1" d="M174.55,58.68v-1.53c-.78,1.06-2.03,1.59-3.6,1.59-2.04,0-3.34-1.29-3.34-2.97s1.36-2.8,3.68-2.82h3.23v-.61c0-1.44-.9-2.32-2.63-2.32-1.08,0-2.09.41-3.12,1.14l-.61-1.03c1.27-.84,2.33-1.33,4.01-1.33,2.43,0,3.77,1.29,3.79,3.38l.02,6.5h-1.42ZM174.53,55.3v-1.19h-3.06c-1.64,0-2.5.5-2.5,1.61s.88,1.81,2.26,1.81c1.66,0,2.93-.82,3.31-2.22Z"/>
    <path class="cls-1" d="M191.75,58.01c-.69.47-1.44.73-2.22.73-1.44.02-2.5-.84-2.5-2.78v-5.66h-1.42v-1.14h1.42v-2.58h1.44v2.58h3.12v1.14h-3.12v5.41c0,1.19.47,1.68,1.31,1.68.5-.02,1.03-.19,1.57-.5l.41,1.12Z"/>
    <path class="cls-1" d="M209.74,54.31h-8.03c.24,1.94,1.64,3.21,3.56,3.21,1.21,0,2.28-.45,3.04-1.25l.8.84c-.93,1.03-2.31,1.62-3.96,1.62-2.89,0-4.89-2.03-4.89-4.97s2.02-4.95,4.87-4.97c3.17,0,4.74,2.18,4.59,5.51ZM208.43,53.16c-.09-1.9-1.36-3.14-3.28-3.14s-3.23,1.23-3.43,3.14h6.72Z"/>
    <path class="cls-1" d="M222.22,50.02c-1.1,0-1.94.39-1.94,1.33,0,2.22,5.49,1.08,5.49,4.61,0,1.92-1.72,2.78-3.6,2.78-1.4,0-2.84-.49-3.77-1.38l.56-1.06c.84.78,2.11,1.25,3.27,1.25s2.09-.45,2.11-1.44c.06-2.39-5.45-1.18-5.43-4.65,0-1.87,1.62-2.67,3.42-2.67,1.18,0,2.31.36,3.14.9l-.56,1.12c-.76-.49-1.75-.79-2.67-.79Z"/>
  </g>
</svg>